<svg xmlns="http://www.w3.org/2000/svg" xmlns:xlink="http://www.w3.org/1999/xlink" width="1340" height="928.4"><rect width="1340" height="928.4" rx="5" ry="5" class="a"/><svg y="0%" x="0%"><circle cx="20" cy="20" r="6" fill="#ff5f58"/><circle cx="40" cy="20" r="6" fill="#ffbd2e"/><circle cx="60" cy="20" r="6" fill="#18c132"/></svg><svg height="868.4" viewBox="0 0 130 86.84" width="1300" x="15" xmlns="http://www.w3.org/2000/svg" xmlns:xlink="http://www.w3.org/1999/xlink" y="50"><style>@keyframes n{0%{transform:translateX(0)}.6%{transform:translateX(-130px)}1.5%{transform:translateX(-260px)}1.9%{transform:translateX(-390px)}4.5%{transform:translateX(-520px)}4.9%{transform:translateX(-650px)}5.2%{transform:translateX(-780px)}5.7%{transform:translateX(-910px)}6%{transform:translateX(-1040px)}6.3%{transform:translateX(-1170px)}6.5%{transform:translateX(-1300px)}6.8%{transform:translateX(-1430px)}7.1%{transform:translateX(-1560px)}7.5%{transform:translateX(-1690px)}7.9%{transform:translateX(-1950px)}9.2%{transform:translateX(-2080px)}9.5%{transform:translateX(-2210px)}10.6%{transform:translateX(-2340px)}11.5%{transform:translateX(-2470px)}12%{transform:translateX(-2600px)}12.4%{transform:translateX(-2730px)}12.9%{transform:translateX(-2860px)}13.8%{transform:translateX(-2990px)}14.3%{transform:translateX(-3120px)}15.2%{transform:translateX(-3250px)}18%{transform:translateX(-3380px)}18.2%{transform:translateX(-3510px)}18.3%{transform:translateX(-3640px)}18.5%{transform:translateX(-3770px)}19.2%{transform:translateX(-3900px)}20.3%{transform:translateX(-4030px)}20.4%{transform:translateX(-4290px)}20.5%{transform:translateX(-4420px)}20.6%{transform:translateX(-4550px)}21%{transform:translateX(-4680px)}22.1%{transform:translateX(-4810px)}22.4%{transform:translateX(-5200px)}91.8%{transform:translateX(-5330px)}92.4%{transform:translateX(-5460px)}92.5%{transform:translateX(-5590px)}92.7%{transform:translateX(-5720px)}94.8%{transform:translateX(-5980px)}95%{transform:translateX(-6240px)}96.3%{transform:translateX(-6370px)}96.6%{transform:translateX(-6500px)}to{transform:translateX(-6760px)}}.a{fill:#282d35}.f,.g,.h,.i,.j,.k{fill:#b9c0cb;white-space:pre}.g,.h,.i,.j,.k{fill:#a8cc8c;font-weight:700}.h,.i,.j,.k{fill:#71bef2}.i,.j,.k{fill:#d290e4}.j,.k{fill:#e88388}.k{fill:#b9c0cb}</style><g font-family="Monaco,Consolas,Menlo,'Bitstream Vera Sans Mono','Powerline Symbols',monospace" font-size="1.67"><defs><symbol id="1"><text y="1.67" class="f">:::</text><text x="4.008" y="1.67" class="f">Replaying</text><text x="14.028" y="1.67" class="f">session</text><text x="22.044" y="1.67" class="f">from</text><text x="27.054" y="1.67" class="f">vagrant_up.cast</text></symbol><symbol id="2"><text y="1.67" class="g">tlee@AIEB224-M01</text><text x="17.034" y="1.67" class="h">~/vagrant/rocky9/arm64</text><text x="40.08" y="1.67" class="i">(</text><text x="41.082" y="1.67" class="g">main</text><text x="45.09" y="1.67" class="j">?</text><text x="46.092" y="1.67" class="i">)</text><text x="48.096" y="1.67" class="h">$</text></symbol><symbol id="3"><text y="1.67" class="g">tlee@AIEB224-M01</text><text x="17.034" y="1.67" class="h">~/vagrant/rocky9/arm64</text><text x="40.08" y="1.67" class="i">(</text><text x="41.082" y="1.67" class="g">main</text><text x="45.09" y="1.67" class="j">?</text><text x="46.092" y="1.67" class="i">)</text><text x="48.096" y="1.67" class="h">$</text><text x="50.1" y="1.67" class="f">vagrant</text></symbol><symbol id="4"><text y="1.67" class="g">tlee@AIEB224-M01</text><text x="17.034" y="1.67" class="h">~/vagrant/rocky9/arm64</text><text x="40.08" y="1.67" class="i">(</text><text x="41.082" y="1.67" class="g">main</text><text x="45.09" y="1.67" class="j">?</text><text x="46.092" y="1.67" class="i">)</text><text x="48.096" y="1.67" class="h">$</text><text x="50.1" y="1.67" class="f">vagrant</text><text x="58.116" y="1.67" class="f">up</text></symbol><symbol id="5"><text y="1.67" class="f">Bringing</text><text x="9.018" y="1.67" class="f">machine</text><text x="17.034" y="1.67" class="f">&apos;default&apos;</text><text x="27.054" y="1.67" class="f">up</text><text x="30.06" y="1.67" class="f">with</text><text x="35.07" y="1.67" class="f">&apos;virtualbox&apos;</text><text x="48.096" y="1.67" class="f">provider...</text></symbol><symbol id="6"><text y="1.67" class="k">==&gt;</text><text x="4.008" y="1.67" class="k">default:</text><text x="13.026" y="1.67" class="k">Importing</text><text x="23.046" y="1.67" class="k">base</text><text x="28.056" y="1.67" class="k">box</text><text x="32.064" y="1.67" class="k">&apos;ceroc_purple_team/rocky9_arm64&apos;...</text></symbol><symbol id="7"><text y="1.67" class="k">==&gt;</text><text x="4.008" y="1.67" class="k">default:</text><text x="13.026" y="1.67" class="k">Matching</text><text x="22.044" y="1.67" class="k">MAC</text><text x="26.052" y="1.67" class="k">address</text><text x="34.068" y="1.67" class="k">for</text><text x="38.076" y="1.67" class="k">NAT</text><text x="42.084" y="1.67" class="k">networking...</text></symbol><symbol id="8"><text y="1.67" class="k">==&gt;</text><text x="4.008" y="1.67" class="k">default:</text><text x="13.026" y="1.67" class="k">Checking</text><text x="22.044" y="1.67" class="k">if</text><text x="25.05" y="1.67" class="k">box</text><text x="29.058" y="1.67" class="k">&apos;ceroc_purple_team/rocky9_arm64&apos;</text><text x="62.124" y="1.67" class="k">version</text><text x="70.14" y="1.67" class="k">&apos;1.0.1&apos;</text><text x="78.156" y="1.67" class="k">is</text><text x="81.162" y="1.67" class="k">up</text><text x="84.168" y="1.67" class="k">to</text><text x="87.174" y="1.67" class="k">date...</text></symbol><symbol id="9"><text y="1.67" class="k">==&gt;</text><text x="4.008" y="1.67" class="k">default:</text><text x="13.026" y="1.67" class="k">Setting</text><text x="21.042" y="1.67" class="k">the</text><text x="25.05" y="1.67" class="k">name</text><text x="30.06" y="1.67" class="k">of</text><text x="33.066" y="1.67" class="k">the</text><text x="37.074" y="1.67" class="k">VM:</text><text x="41.082" y="1.67" class="k">arm64_default_1739916787567_54321</text></symbol><symbol id="10"><text y="1.67" class="k">==&gt;</text><text x="4.008" y="1.67" class="k">default:</text><text x="13.026" y="1.67" class="k">Clearing</text><text x="22.044" y="1.67" class="k">any</text><text x="26.052" y="1.67" class="k">previously</text><text x="37.074" y="1.67" class="k">set</text><text x="41.082" y="1.67" class="k">network</text><text x="49.098" y="1.67" class="k">interfaces...</text></symbol><symbol id="11"><text y="1.67" class="k">==&gt;</text><text x="4.008" y="1.67" class="k">default:</text><text x="13.026" y="1.67" class="k">Preparing</text><text x="23.046" y="1.67" class="k">network</text><text x="31.062" y="1.67" class="k">interfaces</text><text x="42.084" y="1.67" class="k">based</text><text x="48.096" y="1.67" class="k">on</text><text x="51.102" y="1.67" class="k">configuration...</text></symbol><symbol id="12"><text x="4.008" y="1.67" class="f">default:</text><text x="13.026" y="1.67" class="f">Adapter</text><text x="21.042" y="1.67" class="f">1:</text><text x="24.048" y="1.67" class="f">nat</text></symbol><symbol id="13"><text y="1.67" class="k">==&gt;</text><text x="4.008" y="1.67" class="k">default:</text><text x="13.026" y="1.67" class="k">Forwarding</text><text x="24.048" y="1.67" class="k">ports...</text></symbol><symbol id="14"><text x="4.008" y="1.67" class="f">default:</text><text x="13.026" y="1.67" class="f">22</text><text x="16.032" y="1.67" class="f">(guest)</text><text x="24.048" y="1.67" class="f">=&gt;</text><text x="27.054" y="1.67" class="f">2222</text><text x="32.064" y="1.67" class="f">(host)</text><text x="39.078" y="1.67" class="f">(adapter</text><text x="48.096" y="1.67" class="f">1)</text></symbol><symbol id="15"><text y="1.67" class="k">==&gt;</text><text x="4.008" y="1.67" class="k">default:</text><text x="13.026" y="1.67" class="k">Booting</text><text x="21.042" y="1.67" class="k">VM...</text></symbol><symbol id="16"><text y="1.67" class="k">==&gt;</text><text x="4.008" y="1.67" class="k">default:</text><text x="13.026" y="1.67" class="k">Waiting</text><text x="21.042" y="1.67" class="k">for</text><text x="25.05" y="1.67" class="k">machine</text><text x="33.066" y="1.67" class="k">to</text><text x="36.072" y="1.67" class="k">boot.</text><text x="42.084" y="1.67" class="k">This</text><text x="47.094" y="1.67" class="k">may</text><text x="51.102" y="1.67" class="k">take</text><text x="56.112" y="1.67" class="k">a</text><text x="58.116" y="1.67" class="k">few</text><text x="62.124" y="1.67" class="k">minutes...</text></symbol><symbol id="17"><text x="4.008" y="1.67" class="f">default:</text><text x="13.026" y="1.67" class="f">SSH</text><text x="17.034" y="1.67" class="f">address:</text><text x="26.052" y="1.67" class="f">127.0.0.1:2222</text></symbol><symbol id="18"><text x="4.008" y="1.67" class="f">default:</text><text x="13.026" y="1.67" class="f">SSH</text><text x="17.034" y="1.67" class="f">username:</text><text x="27.054" y="1.67" class="f">vagrant</text></symbol><symbol id="19"><text x="4.008" y="1.67" class="f">default:</text><text x="13.026" y="1.67" class="f">SSH</text><text x="17.034" y="1.67" class="f">auth</text><text x="22.044" y="1.67" class="f">method:</text><text x="30.06" y="1.67" class="f">private</text><text x="38.076" y="1.67" class="f">key</text></symbol><symbol id="20"><text x="4.008" y="1.67" class="f">default:</text></symbol><symbol id="21"><text x="4.008" y="1.67" class="f">default:</text><text x="13.026" y="1.67" class="f">Vagrant</text><text x="21.042" y="1.67" class="f">insecure</text><text x="30.06" y="1.67" class="f">key</text><text x="34.068" y="1.67" class="f">detected.</text><text x="44.088" y="1.67" class="f">Vagrant</text><text x="52.104" y="1.67" class="f">will</text><text x="57.114" y="1.67" class="f">automatically</text><text x="71.142" y="1.67" class="f">replace</text></symbol><symbol id="22"><text x="4.008" y="1.67" class="f">default:</text><text x="13.026" y="1.67" class="f">this</text><text x="18.036" y="1.67" class="f">with</text><text x="23.046" y="1.67" class="f">a</text><text x="25.05" y="1.67" class="f">newly</text><text x="31.062" y="1.67" class="f">generated</text><text x="41.082" y="1.67" class="f">keypair</text><text x="49.098" y="1.67" class="f">for</text><text x="53.106" y="1.67" class="f">better</text><text x="60.12" y="1.67" class="f">security.</text></symbol><symbol id="23"><text x="4.008" y="1.67" class="f">default:</text><text x="13.026" y="1.67" class="f">Inserting</text><text x="23.046" y="1.67" class="f">generated</text><text x="33.066" y="1.67" class="f">public</text><text x="40.08" y="1.67" class="f">key</text><text x="44.088" y="1.67" class="f">within</text><text x="51.102" y="1.67" class="f">guest...</text></symbol><symbol id="24"><text x="4.008" y="1.67" class="f">default:</text><text x="13.026" y="1.67" class="f">Removing</text><text x="22.044" y="1.67" class="f">insecure</text><text x="31.062" y="1.67" class="f">key</text><text x="35.07" y="1.67" class="f">from</text><text x="40.08" y="1.67" class="f">the</text><text x="44.088" y="1.67" class="f">guest</text><text x="50.1" y="1.67" class="f">if</text><text x="53.106" y="1.67" class="f">it&apos;s</text><text x="58.116" y="1.67" class="f">present...</text></symbol><symbol id="25"><text x="4.008" y="1.67" class="f">default:</text><text x="13.026" y="1.67" class="f">Key</text><text x="17.034" y="1.67" class="f">inserted!</text><text x="27.054" y="1.67" class="f">Disconnecting</text><text x="41.082" y="1.67" class="f">and</text><text x="45.09" y="1.67" class="f">reconnecting</text><text x="58.116" y="1.67" class="f">using</text><text x="64.128" y="1.67" class="f">new</text><text x="68.136" y="1.67" class="f">SSH</text><text x="72.144" y="1.67" class="f">key...</text></symbol><symbol id="26"><text y="1.67" class="k">==&gt;</text><text x="4.008" y="1.67" class="k">default:</text><text x="13.026" y="1.67" class="k">Machine</text><text x="21.042" y="1.67" class="k">booted</text><text x="28.056" y="1.67" class="k">and</text><text x="32.064" y="1.67" class="k">ready!</text></symbol><symbol id="27"><text y="1.67" class="k">==&gt;</text><text x="4.008" y="1.67" class="k">default:</text><text x="13.026" y="1.67" class="k">Checking</text><text x="22.044" y="1.67" class="k">for</text><text x="26.052" y="1.67" class="k">guest</text><text x="32.064" y="1.67" class="k">additions</text><text x="42.084" y="1.67" class="k">in</text><text x="45.09" y="1.67" class="k">VM...</text></symbol><symbol id="28"><text y="1.67" class="k">==&gt;</text><text x="4.008" y="1.67" class="k">default:</text><text x="13.026" y="1.67" class="k">Mounting</text><text x="22.044" y="1.67" class="k">shared</text><text x="29.058" y="1.67" class="k">folders...</text></symbol><symbol id="29"><text x="4.008" y="1.67" class="f">default:</text><text x="13.026" y="1.67" class="f">/Users/tlee/vagrant/rocky9/arm64</text><text x="46.092" y="1.67" class="f">=&gt;</text><text x="49.098" y="1.67" class="f">/vagrant</text></symbol><symbol id="a"><path fill="transparent" d="M0 0h130v40H0z"/></symbol><symbol id="b"><path fill="#6f7683" d="M0 0h1.102v2.171H0z"/></symbol></defs><path class="a" d="M0 0h130v86.84H0z"/><g style="animation-duration:11.060126s;animation-iteration-count:infinite;animation-name:n;animation-timing-function:steps(1,end)"><svg width="6890"><svg><use xlink:href="#a"/><use xlink:href="#b" x="-.004"/></svg><svg x="130"><use xlink:href="#a"/><use xlink:href="#b" x="-.004" y="2.146"/><use xlink:href="#1"/></svg><svg x="260"><use xlink:href="#a"/><use xlink:href="#b" x="-.004" y="2.146"/><use xlink:href="#1"/></svg><svg x="390"><use xlink:href="#a"/><use xlink:href="#b" x="49.996" y="2.146"/><use xlink:href="#1"/><use xlink:href="#2" y="2.171"/></svg><svg x="520"><use xlink:href="#a"/><use xlink:href="#b" x="50.996" y="2.146"/><use xlink:href="#1"/><text y="3.841" class="g">tlee@AIEB224-M01</text><text x="17.034" y="3.841" class="h">~/vagrant/rocky9/arm64</text><text x="40.08" y="3.841" class="i">(</text><text x="41.082" y="3.841" class="g">main</text><text x="45.09" y="3.841" class="j">?</text><text x="46.092" y="3.841" class="i">)</text><text x="48.096" y="3.841" class="h">$</text><text x="50.1" y="3.841" class="f">v</text></svg><svg x="650"><use xlink:href="#a"/><use xlink:href="#b" x="51.996" y="2.146"/><use xlink:href="#1"/><text y="3.841" class="g">tlee@AIEB224-M01</text><text x="17.034" y="3.841" class="h">~/vagrant/rocky9/arm64</text><text x="40.08" y="3.841" class="i">(</text><text x="41.082" y="3.841" class="g">main</text><text x="45.09" y="3.841" class="j">?</text><text x="46.092" y="3.841" class="i">)</text><text x="48.096" y="3.841" class="h">$</text><text x="50.1" y="3.841" class="f">va</text></svg><svg x="780"><use xlink:href="#a"/><use xlink:href="#b" x="52.996" y="2.146"/><use xlink:href="#1"/><text y="3.841" class="g">tlee@AIEB224-M01</text><text x="17.034" y="3.841" class="h">~/vagrant/rocky9/arm64</text><text x="40.08" y="3.841" class="i">(</text><text x="41.082" y="3.841" class="g">main</text><text x="45.09" y="3.841" class="j">?</text><text x="46.092" y="3.841" class="i">)</text><text x="48.096" y="3.841" class="h">$</text><text x="50.1" y="3.841" class="f">vag</text></svg><svg x="910"><use xlink:href="#a"/><use xlink:href="#b" x="53.996" y="2.146"/><use xlink:href="#1"/><text y="3.841" class="g">tlee@AIEB224-M01</text><text x="17.034" y="3.841" class="h">~/vagrant/rocky9/arm64</text><text x="40.08" y="3.841" class="i">(</text><text x="41.082" y="3.841" class="g">main</text><text x="45.09" y="3.841" class="j">?</text><text x="46.092" y="3.841" class="i">)</text><text x="48.096" y="3.841" class="h">$</text><text x="50.1" y="3.841" class="f">vagr</text></svg><svg x="1040"><use xlink:href="#a"/><use xlink:href="#b" x="54.996" y="2.146"/><use xlink:href="#1"/><text y="3.841" class="g">tlee@AIEB224-M01</text><text x="17.034" y="3.841" class="h">~/vagrant/rocky9/arm64</text><text x="40.08" y="3.841" class="i">(</text><text x="41.082" y="3.841" class="g">main</text><text x="45.09" y="3.841" class="j">?</text><text x="46.092" y="3.841" class="i">)</text><text x="48.096" y="3.841" class="h">$</text><text x="50.1" y="3.841" class="f">vagra</text></svg><svg x="1170"><use xlink:href="#a"/><use xlink:href="#b" x="55.996" y="2.146"/><use xlink:href="#1"/><text y="3.841" class="g">tlee@AIEB224-M01</text><text x="17.034" y="3.841" class="h">~/vagrant/rocky9/arm64</text><text x="40.08" y="3.841" class="i">(</text><text x="41.082" y="3.841" class="g">main</text><text x="45.09" y="3.841" class="j">?</text><text x="46.092" y="3.841" class="i">)</text><text x="48.096" y="3.841" class="h">$</text><text x="50.1" y="3.841" class="f">vagran</text></svg><svg x="1300"><use xlink:href="#a"/><use xlink:href="#b" x="56.996" y="2.146"/><use xlink:href="#1"/><use xlink:href="#3" y="2.171"/></svg><svg x="1430"><use xlink:href="#a"/><use xlink:href="#b" x="57.996" y="2.146"/><use xlink:href="#1"/><use xlink:href="#3" y="2.171"/></svg><svg x="1560"><use xlink:href="#a"/><use xlink:href="#b" x="58.996" y="2.146"/><use xlink:href="#1"/><text y="3.841" class="g">tlee@AIEB224-M01</text><text x="17.034" y="3.841" class="h">~/vagrant/rocky9/arm64</text><text x="40.08" y="3.841" class="i">(</text><text x="41.082" y="3.841" class="g">main</text><text x="45.09" y="3.841" class="j">?</text><text x="46.092" y="3.841" class="i">)</text><text x="48.096" y="3.841" class="h">$</text><text x="50.1" y="3.841" class="f">vagrant</text><text x="58.116" y="3.841" class="f">u</text></svg><svg x="1690"><use xlink:href="#a"/><use xlink:href="#b" x="59.996" y="2.146"/><use xlink:href="#1"/><use xlink:href="#4" y="2.171"/></svg><svg x="1820"><use xlink:href="#a"/><use xlink:href="#b" x="-.004" y="4.317"/><use xlink:href="#1"/><use xlink:href="#4" y="2.171"/></svg><svg x="1950"><use xlink:href="#a"/><use xlink:href="#b" x="-.004" y="4.317"/><use xlink:href="#1"/><use xlink:href="#4" y="2.171"/></svg><svg x="2080"><use xlink:href="#a"/><use xlink:href="#b" x="-.004" y="6.488"/><use xlink:href="#1"/><use xlink:href="#4" y="2.171"/><use xlink:href="#5" y="4.342"/></svg><svg x="2210"><use xlink:href="#a"/><use xlink:href="#b" x="-.004" y="8.659"/><use xlink:href="#1"/><use xlink:href="#4" y="2.171"/><use xlink:href="#5" y="4.342"/><use xlink:href="#6" y="6.513"/></svg><svg x="2340"><use xlink:href="#a"/><use xlink:href="#b" x="12.996" y="8.659"/><use xlink:href="#1"/><use xlink:href="#4" y="2.171"/><use xlink:href="#5" y="4.342"/><use xlink:href="#6" y="6.513"/><text y="10.354" class="f">Progress:</text><text x="10.02" y="10.354" class="f">10%</text></svg><svg x="2470"><use xlink:href="#a"/><use xlink:href="#b" x="12.996" y="8.659"/><use xlink:href="#1"/><use xlink:href="#4" y="2.171"/><use xlink:href="#5" y="4.342"/><use xlink:href="#6" y="6.513"/><text y="10.354" class="f">Progress:</text><text x="10.02" y="10.354" class="f">20%</text></svg><svg x="2600"><use xlink:href="#a"/><use xlink:href="#b" x="12.996" y="8.659"/><use xlink:href="#1"/><use xlink:href="#4" y="2.171"/><use xlink:href="#5" y="4.342"/><use xlink:href="#6" y="6.513"/><text y="10.354" class="f">Progress:</text><text x="10.02" y="10.354" class="f">30%</text></svg><svg x="2730"><use xlink:href="#a"/><use xlink:href="#b" x="12.996" y="8.659"/><use xlink:href="#1"/><use xlink:href="#4" y="2.171"/><use xlink:href="#5" y="4.342"/><use xlink:href="#6" y="6.513"/><text y="10.354" class="f">Progress:</text><text x="10.02" y="10.354" class="f">40%</text></svg><svg x="2860"><use xlink:href="#a"/><use xlink:href="#b" x="12.996" y="8.659"/><use xlink:href="#1"/><use xlink:href="#4" y="2.171"/><use xlink:href="#5" y="4.342"/><use xlink:href="#6" y="6.513"/><text y="10.354" class="f">Progress:</text><text x="10.02" y="10.354" class="f">50%</text></svg><svg x="2990"><use xlink:href="#a"/><use xlink:href="#b" x="12.996" y="8.659"/><use xlink:href="#1"/><use xlink:href="#4" y="2.171"/><use xlink:href="#5" y="4.342"/><use xlink:href="#6" y="6.513"/><text y="10.354" class="f">Progress:</text><text x="10.02" y="10.354" class="f">60%</text></svg><svg x="3120"><use xlink:href="#a"/><use xlink:href="#b" x="12.996" y="8.659"/><use xlink:href="#1"/><use xlink:href="#4" y="2.171"/><use xlink:href="#5" y="4.342"/><use xlink:href="#6" y="6.513"/><text y="10.354" class="f">Progress:</text><text x="10.02" y="10.354" class="f">70%</text></svg><svg x="3250"><use xlink:href="#a"/><use xlink:href="#b" x="12.996" y="8.659"/><use xlink:href="#1"/><use xlink:href="#4" y="2.171"/><use xlink:href="#5" y="4.342"/><use xlink:href="#6" y="6.513"/><text y="10.354" class="f">Progress:</text><text x="10.02" y="10.354" class="f">80%</text></svg><svg x="3380"><use xlink:href="#a"/><use xlink:href="#b" x="12.996" y="8.659"/><use xlink:href="#1"/><use xlink:href="#4" y="2.171"/><use xlink:href="#5" y="4.342"/><use xlink:href="#6" y="6.513"/><text y="10.354" class="f">Progress:</text><text x="10.02" y="10.354" class="f">90%</text></svg><svg x="3510"><use xlink:href="#a"/><use xlink:href="#b" x="-.004" y="8.659"/><use xlink:href="#1"/><use xlink:href="#4" y="2.171"/><use xlink:href="#5" y="4.342"/><use xlink:href="#6" y="6.513"/></svg><svg x="3640"><use xlink:href="#a"/><use xlink:href="#b" x="-.004" y="10.83"/><use xlink:href="#1"/><use xlink:href="#4" y="2.171"/><use xlink:href="#5" y="4.342"/><use xlink:href="#6" y="6.513"/><use xlink:href="#7" y="8.684"/></svg><svg x="3770"><use xlink:href="#a"/><use xlink:href="#b" x="-.004" y="13.001"/><use xlink:href="#1"/><use xlink:href="#4" y="2.171"/><use xlink:href="#5" y="4.342"/><use xlink:href="#6" y="6.513"/><use xlink:href="#7" y="8.684"/><use xlink:href="#8" y="10.855"/></svg><svg x="3900"><use xlink:href="#a"/><use xlink:href="#b" x="-.004" y="15.172"/><use xlink:href="#1"/><use xlink:href="#4" y="2.171"/><use xlink:href="#5" y="4.342"/><use xlink:href="#6" y="6.513"/><use xlink:href="#7" y="8.684"/><use xlink:href="#8" y="10.855"/><use xlink:href="#9" y="13.026"/></svg><svg x="4030"><use xlink:href="#a"/><use xlink:href="#b" x="-.004" y="17.343"/><use xlink:href="#1"/><use xlink:href="#4" y="2.171"/><use xlink:href="#5" y="4.342"/><use xlink:href="#6" y="6.513"/><use xlink:href="#7" y="8.684"/><use xlink:href="#8" y="10.855"/><use xlink:href="#9" y="13.026"/><use xlink:href="#10" y="15.197"/></svg><svg x="4160"><use xlink:href="#a"/><use xlink:href="#b" x="-.004" y="19.514"/><use xlink:href="#1"/><use xlink:href="#4" y="2.171"/><use xlink:href="#5" y="4.342"/><use xlink:href="#6" y="6.513"/><use xlink:href="#7" y="8.684"/><use xlink:href="#8" y="10.855"/><use xlink:href="#9" y="13.026"/><use xlink:href="#10" y="15.197"/><use xlink:href="#11" y="17.368"/></svg><svg x="4290"><use xlink:href="#a"/><use xlink:href="#b" x="-.004" y="21.685"/><use xlink:href="#1"/><use xlink:href="#4" y="2.171"/><use xlink:href="#5" y="4.342"/><use xlink:href="#6" y="6.513"/><use xlink:href="#7" y="8.684"/><use xlink:href="#8" y="10.855"/><use xlink:href="#9" y="13.026"/><use xlink:href="#10" y="15.197"/><use xlink:href="#11" y="17.368"/><use xlink:href="#12" y="19.539"/></svg><svg x="4420"><use xlink:href="#a"/><use xlink:href="#b" x="-.004" y="23.856"/><use xlink:href="#1"/><use xlink:href="#4" y="2.171"/><use xlink:href="#5" y="4.342"/><use xlink:href="#6" y="6.513"/><use xlink:href="#7" y="8.684"/><use xlink:href="#8" y="10.855"/><use xlink:href="#9" y="13.026"/><use xlink:href="#10" y="15.197"/><use xlink:href="#11" y="17.368"/><use xlink:href="#12" y="19.539"/><use xlink:href="#13" y="21.71"/></svg><svg x="4550"><use xlink:href="#a"/><use xlink:href="#b" x="-.004" y="26.027"/><use xlink:href="#1"/><use xlink:href="#4" y="2.171"/><use xlink:href="#5" y="4.342"/><use xlink:href="#6" y="6.513"/><use xlink:href="#7" y="8.684"/><use xlink:href="#8" y="10.855"/><use xlink:href="#9" y="13.026"/><use xlink:href="#10" y="15.197"/><use xlink:href="#11" y="17.368"/><use xlink:href="#12" y="19.539"/><use xlink:href="#13" y="21.71"/><use xlink:href="#14" y="23.881"/></svg><svg x="4680"><use xlink:href="#a"/><use xlink:href="#b" x="-.004" y="28.198"/><use xlink:href="#1"/><use xlink:href="#4" y="2.171"/><use xlink:href="#5" y="4.342"/><use xlink:href="#6" y="6.513"/><use xlink:href="#7" y="8.684"/><use xlink:href="#8" y="10.855"/><use xlink:href="#9" y="13.026"/><use xlink:href="#10" y="15.197"/><use xlink:href="#11" y="17.368"/><use xlink:href="#12" y="19.539"/><use xlink:href="#13" y="21.71"/><use xlink:href="#14" y="23.881"/><use xlink:href="#15" y="26.052"/></svg><svg x="4810"><use xlink:href="#a"/><use xlink:href="#b" x="-.004" y="30.369"/><use xlink:href="#1"/><use xlink:href="#4" y="2.171"/><use xlink:href="#5" y="4.342"/><use xlink:href="#6" y="6.513"/><use xlink:href="#7" y="8.684"/><use xlink:href="#8" y="10.855"/><use xlink:href="#9" y="13.026"/><use xlink:href="#10" y="15.197"/><use xlink:href="#11" y="17.368"/><use xlink:href="#12" y="19.539"/><use xlink:href="#13" y="21.71"/><use xlink:href="#14" y="23.881"/><use xlink:href="#15" y="26.052"/><use xlink:href="#16" y="28.223"/></svg><svg x="4940"><use xlink:href="#a"/><use xlink:href="#b" x="-.004" y="32.54"/><use xlink:href="#1"/><use xlink:href="#4" y="2.171"/><use xlink:href="#5" y="4.342"/><use xlink:href="#6" y="6.513"/><use xlink:href="#7" y="8.684"/><use xlink:href="#8" y="10.855"/><use xlink:href="#9" y="13.026"/><use xlink:href="#10" y="15.197"/><use xlink:href="#11" y="17.368"/><use xlink:href="#12" y="19.539"/><use xlink:href="#13" y="21.71"/><use xlink:href="#14" y="23.881"/><use xlink:href="#15" y="26.052"/><use xlink:href="#16" y="28.223"/><use xlink:href="#17" y="30.394"/></svg><svg x="5070"><use xlink:href="#a"/><use xlink:href="#b" x="-.004" y="34.711"/><use xlink:href="#1"/><use xlink:href="#4" y="2.171"/><use xlink:href="#5" y="4.342"/><use xlink:href="#6" y="6.513"/><use xlink:href="#7" y="8.684"/><use xlink:href="#8" y="10.855"/><use xlink:href="#9" y="13.026"/><use xlink:href="#10" y="15.197"/><use xlink:href="#11" y="17.368"/><use xlink:href="#12" y="19.539"/><use xlink:href="#13" y="21.71"/><use xlink:href="#14" y="23.881"/><use xlink:href="#15" y="26.052"/><use xlink:href="#16" y="28.223"/><use xlink:href="#17" y="30.394"/><use xlink:href="#18" y="32.565"/></svg><svg x="5200"><use xlink:href="#a"/><use xlink:href="#b" x="-.004" y="36.882"/><use xlink:href="#1"/><use xlink:href="#4" y="2.171"/><use xlink:href="#5" y="4.342"/><use xlink:href="#6" y="6.513"/><use xlink:href="#7" y="8.684"/><use xlink:href="#8" y="10.855"/><use xlink:href="#9" y="13.026"/><use xlink:href="#10" y="15.197"/><use xlink:href="#11" y="17.368"/><use xlink:href="#12" y="19.539"/><use xlink:href="#13" y="21.71"/><use xlink:href="#14" y="23.881"/><use xlink:href="#15" y="26.052"/><use xlink:href="#16" y="28.223"/><use xlink:href="#17" y="30.394"/><use xlink:href="#18" y="32.565"/><use xlink:href="#19" y="34.736"/></svg><svg x="5330"><use xlink:href="#a"/><use xlink:href="#b" x="-.004" y="43.395"/><use xlink:href="#1"/><use xlink:href="#4" y="2.171"/><use xlink:href="#5" y="4.342"/><use xlink:href="#6" y="6.513"/><use xlink:href="#7" y="8.684"/><use xlink:href="#8" y="10.855"/><use xlink:href="#9" y="13.026"/><use xlink:href="#10" y="15.197"/><use xlink:href="#11" y="17.368"/><use xlink:href="#12" y="19.539"/><use xlink:href="#13" y="21.71"/><use xlink:href="#14" y="23.881"/><use xlink:href="#15" y="26.052"/><use xlink:href="#16" y="28.223"/><use xlink:href="#17" y="30.394"/><use xlink:href="#18" y="32.565"/><use xlink:href="#19" y="34.736"/><use xlink:href="#20" y="36.907"/><use xlink:href="#21" y="39.078"/><use xlink:href="#22" y="41.249"/></svg><svg x="5460"><use xlink:href="#a"/><use xlink:href="#b" x="-.004" y="47.737"/><use xlink:href="#1"/><use xlink:href="#4" y="2.171"/><use xlink:href="#5" y="4.342"/><use xlink:href="#6" y="6.513"/><use xlink:href="#7" y="8.684"/><use xlink:href="#8" y="10.855"/><use xlink:href="#9" y="13.026"/><use xlink:href="#10" y="15.197"/><use xlink:href="#11" y="17.368"/><use xlink:href="#12" y="19.539"/><use xlink:href="#13" y="21.71"/><use xlink:href="#14" y="23.881"/><use xlink:href="#15" y="26.052"/><use xlink:href="#16" y="28.223"/><use xlink:href="#17" y="30.394"/><use xlink:href="#18" y="32.565"/><use xlink:href="#19" y="34.736"/><use xlink:href="#20" y="36.907"/><use xlink:href="#21" y="39.078"/><use xlink:href="#22" y="41.249"/><use xlink:href="#20" y="43.42"/><use xlink:href="#23" y="45.591"/></svg><svg x="5590"><use xlink:href="#a"/><use xlink:href="#b" x="-.004" y="49.908"/><use xlink:href="#1"/><use xlink:href="#4" y="2.171"/><use xlink:href="#5" y="4.342"/><use xlink:href="#6" y="6.513"/><use xlink:href="#7" y="8.684"/><use xlink:href="#8" y="10.855"/><use xlink:href="#9" y="13.026"/><use xlink:href="#10" y="15.197"/><use xlink:href="#11" y="17.368"/><use xlink:href="#12" y="19.539"/><use xlink:href="#13" y="21.71"/><use xlink:href="#14" y="23.881"/><use xlink:href="#15" y="26.052"/><use xlink:href="#16" y="28.223"/><use xlink:href="#17" y="30.394"/><use xlink:href="#18" y="32.565"/><use xlink:href="#19" y="34.736"/><use xlink:href="#20" y="36.907"/><use xlink:href="#21" y="39.078"/><use xlink:href="#22" y="41.249"/><use xlink:href="#20" y="43.42"/><use xlink:href="#23" y="45.591"/><use xlink:href="#24" y="47.762"/></svg><svg x="5720"><use xlink:href="#a"/><use xlink:href="#b" x="-.004" y="52.079"/><use xlink:href="#1"/><use xlink:href="#4" y="2.171"/><use xlink:href="#5" y="4.342"/><use xlink:href="#6" y="6.513"/><use xlink:href="#7" y="8.684"/><use xlink:href="#8" y="10.855"/><use xlink:href="#9" y="13.026"/><use xlink:href="#10" y="15.197"/><use xlink:href="#11" y="17.368"/><use xlink:href="#12" y="19.539"/><use xlink:href="#13" y="21.71"/><use xlink:href="#14" y="23.881"/><use xlink:href="#15" y="26.052"/><use xlink:href="#16" y="28.223"/><use xlink:href="#17" y="30.394"/><use xlink:href="#18" y="32.565"/><use xlink:href="#19" y="34.736"/><use xlink:href="#20" y="36.907"/><use xlink:href="#21" y="39.078"/><use xlink:href="#22" y="41.249"/><use xlink:href="#20" y="43.42"/><use xlink:href="#23" y="45.591"/><use xlink:href="#24" y="47.762"/><use xlink:href="#25" y="49.933"/></svg><svg x="5850"><use xlink:href="#a"/><use xlink:href="#b" x="-.004" y="54.25"/><use xlink:href="#1"/><use xlink:href="#4" y="2.171"/><use xlink:href="#5" y="4.342"/><use xlink:href="#6" y="6.513"/><use xlink:href="#7" y="8.684"/><use xlink:href="#8" y="10.855"/><use xlink:href="#9" y="13.026"/><use xlink:href="#10" y="15.197"/><use xlink:href="#11" y="17.368"/><use xlink:href="#12" y="19.539"/><use xlink:href="#13" y="21.71"/><use xlink:href="#14" y="23.881"/><use xlink:href="#15" y="26.052"/><use xlink:href="#16" y="28.223"/><use xlink:href="#17" y="30.394"/><use xlink:href="#18" y="32.565"/><use xlink:href="#19" y="34.736"/><use xlink:href="#20" y="36.907"/><use xlink:href="#21" y="39.078"/><use xlink:href="#22" y="41.249"/><use xlink:href="#20" y="43.42"/><use xlink:href="#23" y="45.591"/><use xlink:href="#24" y="47.762"/><use xlink:href="#25" y="49.933"/><use xlink:href="#26" y="52.104"/></svg><svg x="5980"><use xlink:href="#a"/><use xlink:href="#b" x="-.004" y="56.421"/><use xlink:href="#1"/><use xlink:href="#4" y="2.171"/><use xlink:href="#5" y="4.342"/><use xlink:href="#6" y="6.513"/><use xlink:href="#7" y="8.684"/><use xlink:href="#8" y="10.855"/><use xlink:href="#9" y="13.026"/><use xlink:href="#10" y="15.197"/><use xlink:href="#11" y="17.368"/><use xlink:href="#12" y="19.539"/><use xlink:href="#13" y="21.71"/><use xlink:href="#14" y="23.881"/><use xlink:href="#15" y="26.052"/><use xlink:href="#16" y="28.223"/><use xlink:href="#17" y="30.394"/><use xlink:href="#18" y="32.565"/><use xlink:href="#19" y="34.736"/><use xlink:href="#20" y="36.907"/><use xlink:href="#21" y="39.078"/><use xlink:href="#22" y="41.249"/><use xlink:href="#20" y="43.42"/><use xlink:href="#23" y="45.591"/><use xlink:href="#24" y="47.762"/><use xlink:href="#25" y="49.933"/><use xlink:href="#26" y="52.104"/><use xlink:href="#27" y="54.275"/></svg><svg x="6110"><use xlink:href="#a"/><use xlink:href="#b" x="-.004" y="58.592"/><use xlink:href="#1"/><use xlink:href="#4" y="2.171"/><use xlink:href="#5" y="4.342"/><use xlink:href="#6" y="6.513"/><use xlink:href="#7" y="8.684"/><use xlink:href="#8" y="10.855"/><use xlink:href="#9" y="13.026"/><use xlink:href="#10" y="15.197"/><use xlink:href="#11" y="17.368"/><use xlink:href="#12" y="19.539"/><use xlink:href="#13" y="21.71"/><use xlink:href="#14" y="23.881"/><use xlink:href="#15" y="26.052"/><use xlink:href="#16" y="28.223"/><use xlink:href="#17" y="30.394"/><use xlink:href="#18" y="32.565"/><use xlink:href="#19" y="34.736"/><use xlink:href="#20" y="36.907"/><use xlink:href="#21" y="39.078"/><use xlink:href="#22" y="41.249"/><use xlink:href="#20" y="43.42"/><use xlink:href="#23" y="45.591"/><use xlink:href="#24" y="47.762"/><use xlink:href="#25" y="49.933"/><use xlink:href="#26" y="52.104"/><use xlink:href="#27" y="54.275"/><use xlink:href="#28" y="56.446"/></svg><svg x="6240"><use xlink:href="#a"/><use xlink:href="#b" x="-.004" y="60.763"/><use xlink:href="#1"/><use xlink:href="#4" y="2.171"/><use xlink:href="#5" y="4.342"/><use xlink:href="#6" y="6.513"/><use xlink:href="#7" y="8.684"/><use xlink:href="#8" y="10.855"/><use xlink:href="#9" y="13.026"/><use xlink:href="#10" y="15.197"/><use xlink:href="#11" y="17.368"/><use xlink:href="#12" y="19.539"/><use xlink:href="#13" y="21.71"/><use xlink:href="#14" y="23.881"/><use xlink:href="#15" y="26.052"/><use xlink:href="#16" y="28.223"/><use xlink:href="#17" y="30.394"/><use xlink:href="#18" y="32.565"/><use xlink:href="#19" y="34.736"/><use xlink:href="#20" y="36.907"/><use xlink:href="#21" y="39.078"/><use xlink:href="#22" y="41.249"/><use xlink:href="#20" y="43.42"/><use xlink:href="#23" y="45.591"/><use xlink:href="#24" y="47.762"/><use xlink:href="#25" y="49.933"/><use xlink:href="#26" y="52.104"/><use xlink:href="#27" y="54.275"/><use xlink:href="#28" y="56.446"/><use xlink:href="#29" y="58.617"/></svg><svg x="6370"><use xlink:href="#a"/><use xlink:href="#b" x="-.004" y="60.763"/><use xlink:href="#1"/><use xlink:href="#4" y="2.171"/><use xlink:href="#5" y="4.342"/><use xlink:href="#6" y="6.513"/><use xlink:href="#7" y="8.684"/><use xlink:href="#8" y="10.855"/><use xlink:href="#9" y="13.026"/><use xlink:href="#10" y="15.197"/><use xlink:href="#11" y="17.368"/><use xlink:href="#12" y="19.539"/><use xlink:href="#13" y="21.71"/><use xlink:href="#14" y="23.881"/><use xlink:href="#15" y="26.052"/><use xlink:href="#16" y="28.223"/><use xlink:href="#17" y="30.394"/><use xlink:href="#18" y="32.565"/><use xlink:href="#19" y="34.736"/><use xlink:href="#20" y="36.907"/><use xlink:href="#21" y="39.078"/><use xlink:href="#22" y="41.249"/><use xlink:href="#20" y="43.42"/><use xlink:href="#23" y="45.591"/><use xlink:href="#24" y="47.762"/><use xlink:href="#25" y="49.933"/><use xlink:href="#26" y="52.104"/><use xlink:href="#27" y="54.275"/><use xlink:href="#28" y="56.446"/><use xlink:href="#29" y="58.617"/></svg><svg x="6500"><use xlink:href="#a"/><use xlink:href="#b" x="49.996" y="60.763"/><use xlink:href="#1"/><use xlink:href="#4" y="2.171"/><use xlink:href="#5" y="4.342"/><use xlink:href="#6" y="6.513"/><use xlink:href="#7" y="8.684"/><use xlink:href="#8" y="10.855"/><use xlink:href="#9" y="13.026"/><use xlink:href="#10" y="15.197"/><use xlink:href="#11" y="17.368"/><use xlink:href="#12" y="19.539"/><use xlink:href="#13" y="21.71"/><use xlink:href="#14" y="23.881"/><use xlink:href="#15" y="26.052"/><use xlink:href="#16" y="28.223"/><use xlink:href="#17" y="30.394"/><use xlink:href="#18" y="32.565"/><use xlink:href="#19" y="34.736"/><use xlink:href="#20" y="36.907"/><use xlink:href="#21" y="39.078"/><use xlink:href="#22" y="41.249"/><use xlink:href="#20" y="43.42"/><use xlink:href="#23" y="45.591"/><use xlink:href="#24" y="47.762"/><use xlink:href="#25" y="49.933"/><use xlink:href="#26" y="52.104"/><use xlink:href="#27" y="54.275"/><use xlink:href="#28" y="56.446"/><use xlink:href="#29" y="58.617"/><use xlink:href="#2" y="60.788"/></svg><svg x="6630"><use xlink:href="#a"/><use xlink:href="#b" x="-.004" y="62.934"/><use xlink:href="#1"/><use xlink:href="#4" y="2.171"/><use xlink:href="#5" y="4.342"/><use xlink:href="#6" y="6.513"/><use xlink:href="#7" y="8.684"/><use xlink:href="#8" y="10.855"/><use xlink:href="#9" y="13.026"/><use xlink:href="#10" y="15.197"/><use xlink:href="#11" y="17.368"/><use xlink:href="#12" y="19.539"/><use xlink:href="#13" y="21.71"/><use xlink:href="#14" y="23.881"/><use xlink:href="#15" y="26.052"/><use xlink:href="#16" y="28.223"/><use xlink:href="#17" y="30.394"/><use xlink:href="#18" y="32.565"/><use xlink:href="#19" y="34.736"/><use xlink:href="#20" y="36.907"/><use xlink:href="#21" y="39.078"/><use xlink:href="#22" y="41.249"/><use xlink:href="#20" y="43.42"/><use xlink:href="#23" y="45.591"/><use xlink:href="#24" y="47.762"/><use xlink:href="#25" y="49.933"/><use xlink:href="#26" y="52.104"/><use xlink:href="#27" y="54.275"/><use xlink:href="#28" y="56.446"/><use xlink:href="#29" y="58.617"/><use xlink:href="#2" y="60.788"/></svg><svg x="6760"><use xlink:href="#a"/><use xlink:href="#b" x="-.004" y="65.105"/><use xlink:href="#1"/><use xlink:href="#4" y="2.171"/><use xlink:href="#5" y="4.342"/><use xlink:href="#6" y="6.513"/><use xlink:href="#7" y="8.684"/><use xlink:href="#8" y="10.855"/><use xlink:href="#9" y="13.026"/><use xlink:href="#10" y="15.197"/><use xlink:href="#11" y="17.368"/><use xlink:href="#12" y="19.539"/><use xlink:href="#13" y="21.71"/><use xlink:href="#14" y="23.881"/><use xlink:href="#15" y="26.052"/><use xlink:href="#16" y="28.223"/><use xlink:href="#17" y="30.394"/><use xlink:href="#18" y="32.565"/><use xlink:href="#19" y="34.736"/><use xlink:href="#20" y="36.907"/><use xlink:href="#21" y="39.078"/><use xlink:href="#22" y="41.249"/><use xlink:href="#20" y="43.42"/><use xlink:href="#23" y="45.591"/><use xlink:href="#24" y="47.762"/><use xlink:href="#25" y="49.933"/><use xlink:href="#26" y="52.104"/><use xlink:href="#27" y="54.275"/><use xlink:href="#28" y="56.446"/><use xlink:href="#29" y="58.617"/><use xlink:href="#2" y="60.788"/><text y="64.629" class="f">:::</text><text x="4.008" y="64.629" class="f">Playback</text><text x="13.026" y="64.629" class="f">ended</text></svg></svg></g></g></svg></svg>