<svg xmlns="http://www.w3.org/2000/svg" xmlns:xlink="http://www.w3.org/1999/xlink" width="1340" height="928.4"><rect width="1340" height="928.4" rx="5" ry="5" class="a"/><svg y="0%" x="0%"><circle cx="20" cy="20" r="6" fill="#ff5f58"/><circle cx="40" cy="20" r="6" fill="#ffbd2e"/><circle cx="60" cy="20" r="6" fill="#18c132"/></svg><svg height="868.4" viewBox="0 0 130 86.84" width="1300" x="15" xmlns="http://www.w3.org/2000/svg" xmlns:xlink="http://www.w3.org/1999/xlink" y="50"><style>@keyframes n{0%{transform:translateX(0)}3.4%{transform:translateX(-520px)}4.8%{transform:translateX(-910px)}10.6%{transform:translateX(-1040px)}12.3%{transform:translateX(-1170px)}13.6%{transform:translateX(-1300px)}15.7%{transform:translateX(-1430px)}16.9%{transform:translateX(-1560px)}18.6%{transform:translateX(-1690px)}19.5%{transform:translateX(-1820px)}20.8%{transform:translateX(-1950px)}22.1%{transform:translateX(-2080px)}24.1%{transform:translateX(-2210px)}26.3%{transform:translateX(-2340px)}27.9%{transform:translateX(-2470px)}30.1%{transform:translateX(-2600px)}31.2%{transform:translateX(-2730px)}34.2%{transform:translateX(-2860px)}38.3%{transform:translateX(-3380px)}49.1%{transform:translateX(-3510px)}59.5%{transform:translateX(-3640px)}62.2%{transform:translateX(-3770px)}67%{transform:translateX(-3900px)}81.5%{transform:translateX(-4030px)}83.4%{transform:translateX(-4550px)}85%{transform:translateX(-5070px)}to{transform:translateX(-5330px)}}.a{fill:#282d35}.f{fill:#a8cc8c;white-space:pre}.f,.g,.h{font-weight:700}.g{fill:#71bef2;white-space:pre}.h{fill:#d290e4}.h,.i,.j,.k{white-space:pre}.i{fill:#e88388;font-weight:700}.j,.k{fill:#b9c0cb}.k{font-weight:700}</style><g font-family="Monaco,Consolas,Menlo,'Bitstream Vera Sans Mono','Powerline Symbols',monospace" font-size="1.67"><defs><symbol id="1"><text y="1.67" class="f">tlee@AIEB224-M01</text><text x="17.034" y="1.67" class="g">~/vagrant/rocky9/arm64</text><text x="40.08" y="1.67" class="h">(</text><text x="41.082" y="1.67" class="f">main</text><text x="45.09" y="1.67" class="i">?</text><text x="46.092" y="1.67" class="h">)</text><text x="48.096" y="1.67" class="g">$</text></symbol><symbol id="2"><text y="1.67" class="f">tlee@AIEB224-M01</text><text x="17.034" y="1.67" class="g">~/vagrant/rocky9/arm64</text><text x="40.08" y="1.67" class="h">(</text><text x="41.082" y="1.67" class="f">main</text><text x="45.09" y="1.67" class="i">?</text><text x="46.092" y="1.67" class="h">)</text><text x="48.096" y="1.67" class="g">$</text><text x="50.1" y="1.67" class="j">vagrant</text></symbol><symbol id="3"><text y="1.67" class="f">tlee@AIEB224-M01</text><text x="17.034" y="1.67" class="g">~/vagrant/rocky9/arm64</text><text x="40.08" y="1.67" class="h">(</text><text x="41.082" y="1.67" class="f">main</text><text x="45.09" y="1.67" class="i">?</text><text x="46.092" y="1.67" class="h">)</text><text x="48.096" y="1.67" class="g">$</text><text x="50.1" y="1.67" class="j">vagrant</text><text x="58.116" y="1.67" class="j">destroy</text></symbol><symbol id="4"><text x="4.008" y="1.67" class="j">default:</text><text x="13.026" y="1.67" class="j">Are</text><text x="17.034" y="1.67" class="j">you</text><text x="21.042" y="1.67" class="j">sure</text><text x="26.052" y="1.67" class="j">you</text><text x="30.06" y="1.67" class="j">want</text><text x="35.07" y="1.67" class="j">to</text><text x="38.076" y="1.67" class="j">destroy</text><text x="46.092" y="1.67" class="j">the</text><text x="50.1" y="1.67" class="j">&apos;default&apos;</text><text x="60.12" y="1.67" class="j">VM?</text><text x="64.128" y="1.67" class="j">[y/N]</text><text x="70.14" y="1.67" class="j">y</text></symbol><symbol id="5"><text y="1.67" class="k">==&gt;</text><text x="4.008" y="1.67" class="k">default:</text><text x="13.026" y="1.67" class="k">Forcing</text><text x="21.042" y="1.67" class="k">shutdown</text><text x="30.06" y="1.67" class="k">of</text><text x="33.066" y="1.67" class="k">VM...</text></symbol><symbol id="6"><text y="1.67" class="k">==&gt;</text><text x="4.008" y="1.67" class="k">default:</text><text x="13.026" y="1.67" class="k">Destroying</text><text x="24.048" y="1.67" class="k">VM</text><text x="27.054" y="1.67" class="k">and</text><text x="31.062" y="1.67" class="k">associated</text><text x="42.084" y="1.67" class="k">drives...</text></symbol><symbol id="a"><path fill="transparent" d="M0 0h130v40H0z"/></symbol><symbol id="b"><path fill="#6f7683" d="M0 0h1.102v2.171H0z"/></symbol></defs><path class="a" d="M0 0h130v86.84H0z"/><g style="animation-duration:9.128016s;animation-iteration-count:infinite;animation-name:n;animation-timing-function:steps(1,end)"><svg width="5460"><svg><use xlink:href="#a"/><use xlink:href="#b" x="-.004"/></svg><svg x="130"><use xlink:href="#a"/><use xlink:href="#b" x="-.004"/></svg><svg x="260"><use xlink:href="#a"/><use xlink:href="#b" x="-.004"/></svg><svg x="390"><use xlink:href="#a"/><use xlink:href="#b" x="-.004"/></svg><svg x="520"><use xlink:href="#a"/><use xlink:href="#b" x="-.004"/></svg><svg x="650"><use xlink:href="#a"/><use xlink:href="#b" x="49.996"/><use xlink:href="#1"/></svg><svg x="780"><use xlink:href="#a"/><use xlink:href="#b" x="49.996"/><use xlink:href="#1"/></svg><svg x="910"><use xlink:href="#a"/><use xlink:href="#b" x="49.996"/><use xlink:href="#1"/></svg><svg x="1040"><use xlink:href="#a"/><use xlink:href="#b" x="50.996"/><text y="1.67" class="f">tlee@AIEB224-M01</text><text x="17.034" y="1.67" class="g">~/vagrant/rocky9/arm64</text><text x="40.08" y="1.67" class="h">(</text><text x="41.082" y="1.67" class="f">main</text><text x="45.09" y="1.67" class="i">?</text><text x="46.092" y="1.67" class="h">)</text><text x="48.096" y="1.67" class="g">$</text><text x="50.1" y="1.67" class="j">v</text></svg><svg x="1170"><use xlink:href="#a"/><use xlink:href="#b" x="51.996"/><text y="1.67" class="f">tlee@AIEB224-M01</text><text x="17.034" y="1.67" class="g">~/vagrant/rocky9/arm64</text><text x="40.08" y="1.67" class="h">(</text><text x="41.082" y="1.67" class="f">main</text><text x="45.09" y="1.67" class="i">?</text><text x="46.092" y="1.67" class="h">)</text><text x="48.096" y="1.67" class="g">$</text><text x="50.1" y="1.67" class="j">va</text></svg><svg x="1300"><use xlink:href="#a"/><use xlink:href="#b" x="52.996"/><text y="1.67" class="f">tlee@AIEB224-M01</text><text x="17.034" y="1.67" class="g">~/vagrant/rocky9/arm64</text><text x="40.08" y="1.67" class="h">(</text><text x="41.082" y="1.67" class="f">main</text><text x="45.09" y="1.67" class="i">?</text><text x="46.092" y="1.67" class="h">)</text><text x="48.096" y="1.67" class="g">$</text><text x="50.1" y="1.67" class="j">vag</text></svg><svg x="1430"><use xlink:href="#a"/><use xlink:href="#b" x="53.996"/><text y="1.67" class="f">tlee@AIEB224-M01</text><text x="17.034" y="1.67" class="g">~/vagrant/rocky9/arm64</text><text x="40.08" y="1.67" class="h">(</text><text x="41.082" y="1.67" class="f">main</text><text x="45.09" y="1.67" class="i">?</text><text x="46.092" y="1.67" class="h">)</text><text x="48.096" y="1.67" class="g">$</text><text x="50.1" y="1.67" class="j">vagr</text></svg><svg x="1560"><use xlink:href="#a"/><use xlink:href="#b" x="54.996"/><text y="1.67" class="f">tlee@AIEB224-M01</text><text x="17.034" y="1.67" class="g">~/vagrant/rocky9/arm64</text><text x="40.08" y="1.67" class="h">(</text><text x="41.082" y="1.67" class="f">main</text><text x="45.09" y="1.67" class="i">?</text><text x="46.092" y="1.67" class="h">)</text><text x="48.096" y="1.67" class="g">$</text><text x="50.1" y="1.67" class="j">vagra</text></svg><svg x="1690"><use xlink:href="#a"/><use xlink:href="#b" x="55.996"/><text y="1.67" class="f">tlee@AIEB224-M01</text><text x="17.034" y="1.67" class="g">~/vagrant/rocky9/arm64</text><text x="40.08" y="1.67" class="h">(</text><text x="41.082" y="1.67" class="f">main</text><text x="45.09" y="1.67" class="i">?</text><text x="46.092" y="1.67" class="h">)</text><text x="48.096" y="1.67" class="g">$</text><text x="50.1" y="1.67" class="j">vagran</text></svg><svg x="1820"><use xlink:href="#a"/><use xlink:href="#b" x="56.996"/><use xlink:href="#2"/></svg><svg x="1950"><use xlink:href="#a"/><use xlink:href="#b" x="57.996"/><use xlink:href="#2"/></svg><svg x="2080"><use xlink:href="#a"/><use xlink:href="#b" x="58.996"/><text y="1.67" class="f">tlee@AIEB224-M01</text><text x="17.034" y="1.67" class="g">~/vagrant/rocky9/arm64</text><text x="40.08" y="1.67" class="h">(</text><text x="41.082" y="1.67" class="f">main</text><text x="45.09" y="1.67" class="i">?</text><text x="46.092" y="1.67" class="h">)</text><text x="48.096" y="1.67" class="g">$</text><text x="50.1" y="1.67" class="j">vagrant</text><text x="58.116" y="1.67" class="j">d</text></svg><svg x="2210"><use xlink:href="#a"/><use xlink:href="#b" x="59.996"/><text y="1.67" class="f">tlee@AIEB224-M01</text><text x="17.034" y="1.67" class="g">~/vagrant/rocky9/arm64</text><text x="40.08" y="1.67" class="h">(</text><text x="41.082" y="1.67" class="f">main</text><text x="45.09" y="1.67" class="i">?</text><text x="46.092" y="1.67" class="h">)</text><text x="48.096" y="1.67" class="g">$</text><text x="50.1" y="1.67" class="j">vagrant</text><text x="58.116" y="1.67" class="j">de</text></svg><svg x="2340"><use xlink:href="#a"/><use xlink:href="#b" x="60.996"/><text y="1.67" class="f">tlee@AIEB224-M01</text><text x="17.034" y="1.67" class="g">~/vagrant/rocky9/arm64</text><text x="40.08" y="1.67" class="h">(</text><text x="41.082" y="1.67" class="f">main</text><text x="45.09" y="1.67" class="i">?</text><text x="46.092" y="1.67" class="h">)</text><text x="48.096" y="1.67" class="g">$</text><text x="50.1" y="1.67" class="j">vagrant</text><text x="58.116" y="1.67" class="j">des</text></svg><svg x="2470"><use xlink:href="#a"/><use xlink:href="#b" x="61.996"/><text y="1.67" class="f">tlee@AIEB224-M01</text><text x="17.034" y="1.67" class="g">~/vagrant/rocky9/arm64</text><text x="40.08" y="1.67" class="h">(</text><text x="41.082" y="1.67" class="f">main</text><text x="45.09" y="1.67" class="i">?</text><text x="46.092" y="1.67" class="h">)</text><text x="48.096" y="1.67" class="g">$</text><text x="50.1" y="1.67" class="j">vagrant</text><text x="58.116" y="1.67" class="j">dest</text></svg><svg x="2600"><use xlink:href="#a"/><use xlink:href="#b" x="62.996"/><text y="1.67" class="f">tlee@AIEB224-M01</text><text x="17.034" y="1.67" class="g">~/vagrant/rocky9/arm64</text><text x="40.08" y="1.67" class="h">(</text><text x="41.082" y="1.67" class="f">main</text><text x="45.09" y="1.67" class="i">?</text><text x="46.092" y="1.67" class="h">)</text><text x="48.096" y="1.67" class="g">$</text><text x="50.1" y="1.67" class="j">vagrant</text><text x="58.116" y="1.67" class="j">destr</text></svg><svg x="2730"><use xlink:href="#a"/><use xlink:href="#b" x="63.996"/><text y="1.67" class="f">tlee@AIEB224-M01</text><text x="17.034" y="1.67" class="g">~/vagrant/rocky9/arm64</text><text x="40.08" y="1.67" class="h">(</text><text x="41.082" y="1.67" class="f">main</text><text x="45.09" y="1.67" class="i">?</text><text x="46.092" y="1.67" class="h">)</text><text x="48.096" y="1.67" class="g">$</text><text x="50.1" y="1.67" class="j">vagrant</text><text x="58.116" y="1.67" class="j">destro</text></svg><svg x="2860"><use xlink:href="#a"/><use xlink:href="#b" x="64.996"/><use xlink:href="#3"/></svg><svg x="2990"><use xlink:href="#a"/><use xlink:href="#b" x="64.996"/><use xlink:href="#3"/></svg><svg x="3120"><use xlink:href="#a"/><use xlink:href="#b" x="-.004" y="2.146"/><use xlink:href="#3"/></svg><svg x="3250"><use xlink:href="#a"/><use xlink:href="#b" x="-.004" y="2.146"/><use xlink:href="#3"/></svg><svg x="3380"><use xlink:href="#a"/><use xlink:href="#b" x="-.004" y="2.146"/><use xlink:href="#3"/></svg><svg x="3510"><use xlink:href="#a"/><use xlink:href="#b" x="69.996" y="2.146"/><use xlink:href="#3"/><text x="4.008" y="3.841" class="j">default:</text><text x="13.026" y="3.841" class="j">Are</text><text x="17.034" y="3.841" class="j">you</text><text x="21.042" y="3.841" class="j">sure</text><text x="26.052" y="3.841" class="j">you</text><text x="30.06" y="3.841" class="j">want</text><text x="35.07" y="3.841" class="j">to</text><text x="38.076" y="3.841" class="j">destroy</text><text x="46.092" y="3.841" class="j">the</text><text x="50.1" y="3.841" class="j">&apos;default&apos;</text><text x="60.12" y="3.841" class="j">VM?</text><text x="64.128" y="3.841" class="j">[y/N]</text></svg><svg x="3640"><use xlink:href="#a"/><use xlink:href="#b" x="70.996" y="2.146"/><use xlink:href="#3"/><use xlink:href="#4" y="2.171"/></svg><svg x="3770"><use xlink:href="#a"/><use xlink:href="#b" x="-.004" y="4.317"/><use xlink:href="#3"/><use xlink:href="#4" y="2.171"/></svg><svg x="3900"><use xlink:href="#a"/><use xlink:href="#b" x="-.004" y="6.488"/><use xlink:href="#3"/><use xlink:href="#4" y="2.171"/><use xlink:href="#5" y="4.342"/></svg><svg x="4030"><use xlink:href="#a"/><use xlink:href="#b" x="-.004" y="8.659"/><use xlink:href="#3"/><use xlink:href="#4" y="2.171"/><use xlink:href="#5" y="4.342"/><use xlink:href="#6" y="6.513"/></svg><svg x="4160"><use xlink:href="#a"/><use xlink:href="#b" x="-.004" y="8.659"/><use xlink:href="#3"/><use xlink:href="#4" y="2.171"/><use xlink:href="#5" y="4.342"/><use xlink:href="#6" y="6.513"/></svg><svg x="4290"><use xlink:href="#a"/><use xlink:href="#b" x="-.004" y="8.659"/><use xlink:href="#3"/><use xlink:href="#4" y="2.171"/><use xlink:href="#5" y="4.342"/><use xlink:href="#6" y="6.513"/></svg><svg x="4420"><use xlink:href="#a"/><use xlink:href="#b" x="-.004" y="8.659"/><use xlink:href="#3"/><use xlink:href="#4" y="2.171"/><use xlink:href="#5" y="4.342"/><use xlink:href="#6" y="6.513"/></svg><svg x="4550"><use xlink:href="#a"/><use xlink:href="#b" x="-.004" y="8.659"/><use xlink:href="#3"/><use xlink:href="#4" y="2.171"/><use xlink:href="#5" y="4.342"/><use xlink:href="#6" y="6.513"/></svg><svg x="4680"><use xlink:href="#a"/><use xlink:href="#b" x="49.996" y="8.659"/><use xlink:href="#3"/><use xlink:href="#4" y="2.171"/><use xlink:href="#5" y="4.342"/><use xlink:href="#6" y="6.513"/><use xlink:href="#1" y="8.684"/></svg><svg x="4810"><use xlink:href="#a"/><use xlink:href="#b" x="49.996" y="8.659"/><use xlink:href="#3"/><use xlink:href="#4" y="2.171"/><use xlink:href="#5" y="4.342"/><use xlink:href="#6" y="6.513"/><use xlink:href="#1" y="8.684"/></svg><svg x="4940"><use xlink:href="#a"/><use xlink:href="#b" x="49.996" y="8.659"/><use xlink:href="#3"/><use xlink:href="#4" y="2.171"/><use xlink:href="#5" y="4.342"/><use xlink:href="#6" y="6.513"/><use xlink:href="#1" y="8.684"/></svg><svg x="5070"><use xlink:href="#a"/><use xlink:href="#b" x="49.996" y="8.659"/><use xlink:href="#3"/><use xlink:href="#4" y="2.171"/><use xlink:href="#5" y="4.342"/><use xlink:href="#6" y="6.513"/><use xlink:href="#1" y="8.684"/></svg><svg x="5200"><use xlink:href="#a"/><use xlink:href="#b" x="49.996" y="8.659"/><use xlink:href="#3"/><use xlink:href="#4" y="2.171"/><use xlink:href="#5" y="4.342"/><use xlink:href="#6" y="6.513"/><use xlink:href="#1" y="8.684"/></svg><svg x="5330"><use xlink:href="#a"/><use xlink:href="#b" x="-.004" y="10.83"/><use xlink:href="#3"/><use xlink:href="#4" y="2.171"/><use xlink:href="#5" y="4.342"/><use xlink:href="#6" y="6.513"/><use xlink:href="#1" y="8.684"/></svg></svg></g></g></svg></svg>