<svg xmlns="http://www.w3.org/2000/svg" xmlns:xlink="http://www.w3.org/1999/xlink" width="1340" height="928.4"><rect width="1340" height="928.4" rx="5" ry="5" class="a"/><svg y="0%" x="0%"><circle cx="20" cy="20" r="6" fill="#ff5f58"/><circle cx="40" cy="20" r="6" fill="#ffbd2e"/><circle cx="60" cy="20" r="6" fill="#18c132"/></svg><svg height="868.4" viewBox="0 0 130 86.84" width="1300" x="15" xmlns="http://www.w3.org/2000/svg" xmlns:xlink="http://www.w3.org/1999/xlink" y="50"><style>@keyframes m{0%{transform:translateX(0)}1.9%{transform:translateX(-520px)}2.8%{transform:translateX(-1040px)}8%{transform:translateX(-1170px)}9.3%{transform:translateX(-1300px)}10.1%{transform:translateX(-1430px)}11.8%{transform:translateX(-1560px)}12.7%{transform:translateX(-1690px)}13.5%{transform:translateX(-1820px)}14.2%{transform:translateX(-1950px)}15%{transform:translateX(-2080px)}16.1%{transform:translateX(-2210px)}17.3%{transform:translateX(-2340px)}18.1%{transform:translateX(-2470px)}19.2%{transform:translateX(-2990px)}29%{transform:translateX(-3120px)}29.1%{transform:translateX(-3510px)}36%{transform:translateX(-3640px)}37.5%{transform:translateX(-3770px)}39.4%{transform:translateX(-3900px)}43.1%{transform:translateX(-4030px)}44%{transform:translateX(-4160px)}45.4%{transform:translateX(-4290px)}47.7%{transform:translateX(-5200px)}60.4%{transform:translateX(-5330px)}61.8%{transform:translateX(-5460px)}63.7%{transform:translateX(-5590px)}67.6%{transform:translateX(-5720px)}68.4%{transform:translateX(-5850px)}71.4%{transform:translateX(-5980px)}88%{transform:translateX(-6110px)}90%{transform:translateX(-6240px)}91.1%{transform:translateX(-6370px)}91.8%{transform:translateX(-6500px)}92.7%{transform:translateX(-7150px)}94.1%{transform:translateX(-7540px)}to{transform:translateX(-7670px)}}.a{fill:#282d35}.f{fill:#a8cc8c;white-space:pre}.f,.g,.h{font-weight:700}.g{fill:#71bef2;white-space:pre}.h{fill:#d290e4}.h,.i,.j{white-space:pre}.i{fill:#e88388;font-weight:700}.j{fill:#b9c0cb}</style><g font-family="Monaco,Consolas,Menlo,'Bitstream Vera Sans Mono','Powerline Symbols',monospace" font-size="1.67"><defs><symbol id="1"><text y="1.67" class="f">tlee@AIEB224-M01</text><text x="17.034" y="1.67" class="g">~/vagrant/rocky9/arm64</text><text x="40.08" y="1.67" class="h">(</text><text x="41.082" y="1.67" class="f">main</text><text x="45.09" y="1.67" class="i">?</text><text x="46.092" y="1.67" class="h">)</text><text x="48.096" y="1.67" class="g">$</text></symbol><symbol id="2"><text y="1.67" class="f">tlee@AIEB224-M01</text><text x="17.034" y="1.67" class="g">~/vagrant/rocky9/arm64</text><text x="40.08" y="1.67" class="h">(</text><text x="41.082" y="1.67" class="f">main</text><text x="45.09" y="1.67" class="i">?</text><text x="46.092" y="1.67" class="h">)</text><text x="48.096" y="1.67" class="g">$</text><text x="50.1" y="1.67" class="j">vagrant</text></symbol><symbol id="3"><text y="1.67" class="f">tlee@AIEB224-M01</text><text x="17.034" y="1.67" class="g">~/vagrant/rocky9/arm64</text><text x="40.08" y="1.67" class="h">(</text><text x="41.082" y="1.67" class="f">main</text><text x="45.09" y="1.67" class="i">?</text><text x="46.092" y="1.67" class="h">)</text><text x="48.096" y="1.67" class="g">$</text><text x="50.1" y="1.67" class="j">vagrant</text><text x="58.116" y="1.67" class="j">ssh</text></symbol><symbol id="4"><text y="1.67" class="j">Last</text><text x="5.01" y="1.67" class="j">login:</text><text x="12.024" y="1.67" class="j">Tue</text><text x="16.032" y="1.67" class="j">Feb</text><text x="20.04" y="1.67" class="j">18</text><text x="23.046" y="1.67" class="j">07:19:28</text><text x="32.064" y="1.67" class="j">2025</text></symbol><symbol id="5"><text y="1.67" class="j">[vagrant@vbox</text><text x="14.028" y="1.67" class="j">~]$</text></symbol><symbol id="6"><text y="1.67" class="j">[vagrant@vbox</text><text x="14.028" y="1.67" class="j">~]$</text><text x="18.036" y="1.67" class="j">whoami</text></symbol><symbol id="7"><text y="1.67" class="j">vagrant</text></symbol><symbol id="8"><text y="1.67" class="j">[vagrant@vbox</text><text x="14.028" y="1.67" class="j">~]$</text><text x="18.036" y="1.67" class="j">pw</text></symbol><symbol id="9"><text y="1.67" class="j">[vagrant@vbox</text><text x="14.028" y="1.67" class="j">~]$</text><text x="18.036" y="1.67" class="j">pwd</text></symbol><symbol id="10"><text y="1.67" class="j">/home/vagrant</text></symbol><symbol id="11"><text y="1.67" class="j">[vagrant@vbox</text><text x="14.028" y="1.67" class="j">~]$</text><text x="18.036" y="1.67" class="j">exit</text></symbol><symbol id="12"><text y="1.67" class="j">logout</text></symbol><symbol id="a"><path fill="transparent" d="M0 0h130v40H0z"/></symbol><symbol id="b"><path fill="#6f7683" d="M0 0h1.102v2.171H0z"/></symbol></defs><path class="a" d="M0 0h130v86.84H0z"/><g style="animation-duration:13.384687s;animation-iteration-count:infinite;animation-name:m;animation-timing-function:steps(1,end)"><svg width="7800"><svg><use xlink:href="#a"/><use xlink:href="#b" x="-.004"/></svg><svg x="130"><use xlink:href="#a"/><use xlink:href="#b" x="-.004"/></svg><svg x="260"><use xlink:href="#a"/><use xlink:href="#b" x="-.004"/></svg><svg x="390"><use xlink:href="#a"/><use xlink:href="#b" x="-.004"/></svg><svg x="520"><use xlink:href="#a"/><use xlink:href="#b" x="-.004"/></svg><svg x="650"><use xlink:href="#a"/><use xlink:href="#b" x="49.996"/><use xlink:href="#1"/></svg><svg x="780"><use xlink:href="#a"/><use xlink:href="#b" x="49.996"/><use xlink:href="#1"/></svg><svg x="910"><use xlink:href="#a"/><use xlink:href="#b" x="49.996"/><use xlink:href="#1"/></svg><svg x="1040"><use xlink:href="#a"/><use xlink:href="#b" x="49.996"/><use xlink:href="#1"/></svg><svg x="1170"><use xlink:href="#a"/><use xlink:href="#b" x="50.996"/><text y="1.67" class="f">tlee@AIEB224-M01</text><text x="17.034" y="1.67" class="g">~/vagrant/rocky9/arm64</text><text x="40.08" y="1.67" class="h">(</text><text x="41.082" y="1.67" class="f">main</text><text x="45.09" y="1.67" class="i">?</text><text x="46.092" y="1.67" class="h">)</text><text x="48.096" y="1.67" class="g">$</text><text x="50.1" y="1.67" class="j">v</text></svg><svg x="1300"><use xlink:href="#a"/><use xlink:href="#b" x="51.996"/><text y="1.67" class="f">tlee@AIEB224-M01</text><text x="17.034" y="1.67" class="g">~/vagrant/rocky9/arm64</text><text x="40.08" y="1.67" class="h">(</text><text x="41.082" y="1.67" class="f">main</text><text x="45.09" y="1.67" class="i">?</text><text x="46.092" y="1.67" class="h">)</text><text x="48.096" y="1.67" class="g">$</text><text x="50.1" y="1.67" class="j">va</text></svg><svg x="1430"><use xlink:href="#a"/><use xlink:href="#b" x="52.996"/><text y="1.67" class="f">tlee@AIEB224-M01</text><text x="17.034" y="1.67" class="g">~/vagrant/rocky9/arm64</text><text x="40.08" y="1.67" class="h">(</text><text x="41.082" y="1.67" class="f">main</text><text x="45.09" y="1.67" class="i">?</text><text x="46.092" y="1.67" class="h">)</text><text x="48.096" y="1.67" class="g">$</text><text x="50.1" y="1.67" class="j">vag</text></svg><svg x="1560"><use xlink:href="#a"/><use xlink:href="#b" x="53.996"/><text y="1.67" class="f">tlee@AIEB224-M01</text><text x="17.034" y="1.67" class="g">~/vagrant/rocky9/arm64</text><text x="40.08" y="1.67" class="h">(</text><text x="41.082" y="1.67" class="f">main</text><text x="45.09" y="1.67" class="i">?</text><text x="46.092" y="1.67" class="h">)</text><text x="48.096" y="1.67" class="g">$</text><text x="50.1" y="1.67" class="j">vagr</text></svg><svg x="1690"><use xlink:href="#a"/><use xlink:href="#b" x="54.996"/><text y="1.67" class="f">tlee@AIEB224-M01</text><text x="17.034" y="1.67" class="g">~/vagrant/rocky9/arm64</text><text x="40.08" y="1.67" class="h">(</text><text x="41.082" y="1.67" class="f">main</text><text x="45.09" y="1.67" class="i">?</text><text x="46.092" y="1.67" class="h">)</text><text x="48.096" y="1.67" class="g">$</text><text x="50.1" y="1.67" class="j">vagra</text></svg><svg x="1820"><use xlink:href="#a"/><use xlink:href="#b" x="55.996"/><text y="1.67" class="f">tlee@AIEB224-M01</text><text x="17.034" y="1.67" class="g">~/vagrant/rocky9/arm64</text><text x="40.08" y="1.67" class="h">(</text><text x="41.082" y="1.67" class="f">main</text><text x="45.09" y="1.67" class="i">?</text><text x="46.092" y="1.67" class="h">)</text><text x="48.096" y="1.67" class="g">$</text><text x="50.1" y="1.67" class="j">vagran</text></svg><svg x="1950"><use xlink:href="#a"/><use xlink:href="#b" x="56.996"/><use xlink:href="#2"/></svg><svg x="2080"><use xlink:href="#a"/><use xlink:href="#b" x="57.996"/><use xlink:href="#2"/></svg><svg x="2210"><use xlink:href="#a"/><use xlink:href="#b" x="58.996"/><text y="1.67" class="f">tlee@AIEB224-M01</text><text x="17.034" y="1.67" class="g">~/vagrant/rocky9/arm64</text><text x="40.08" y="1.67" class="h">(</text><text x="41.082" y="1.67" class="f">main</text><text x="45.09" y="1.67" class="i">?</text><text x="46.092" y="1.67" class="h">)</text><text x="48.096" y="1.67" class="g">$</text><text x="50.1" y="1.67" class="j">vagrant</text><text x="58.116" y="1.67" class="j">s</text></svg><svg x="2340"><use xlink:href="#a"/><use xlink:href="#b" x="59.996"/><text y="1.67" class="f">tlee@AIEB224-M01</text><text x="17.034" y="1.67" class="g">~/vagrant/rocky9/arm64</text><text x="40.08" y="1.67" class="h">(</text><text x="41.082" y="1.67" class="f">main</text><text x="45.09" y="1.67" class="i">?</text><text x="46.092" y="1.67" class="h">)</text><text x="48.096" y="1.67" class="g">$</text><text x="50.1" y="1.67" class="j">vagrant</text><text x="58.116" y="1.67" class="j">ss</text></svg><svg x="2470"><use xlink:href="#a"/><use xlink:href="#b" x="60.996"/><use xlink:href="#3"/></svg><svg x="2600"><use xlink:href="#a"/><use xlink:href="#b" x="60.996"/><use xlink:href="#3"/></svg><svg x="2730"><use xlink:href="#a"/><use xlink:href="#b" x="-.004" y="2.146"/><use xlink:href="#3"/></svg><svg x="2860"><use xlink:href="#a"/><use xlink:href="#b" x="-.004" y="2.146"/><use xlink:href="#3"/></svg><svg x="2990"><use xlink:href="#a"/><use xlink:href="#b" x="-.004" y="2.146"/><use xlink:href="#3"/></svg><svg x="3120"><use xlink:href="#a"/><use xlink:href="#b" x="-.004" y="4.317"/><use xlink:href="#3"/><use xlink:href="#4" y="2.171"/></svg><svg x="3250"><use xlink:href="#a"/><use xlink:href="#b" x="-.004" y="4.317"/><use xlink:href="#3"/><use xlink:href="#4" y="2.171"/></svg><svg x="3380"><use xlink:href="#a"/><use xlink:href="#b" x="-.004" y="4.317"/><use xlink:href="#3"/><use xlink:href="#4" y="2.171"/></svg><svg x="3510"><use xlink:href="#a"/><use xlink:href="#b" x="17.996" y="4.317"/><use xlink:href="#3"/><use xlink:href="#4" y="2.171"/><use xlink:href="#5" y="4.342"/></svg><svg x="3640"><use xlink:href="#a"/><use xlink:href="#b" x="18.996" y="4.317"/><use xlink:href="#3"/><use xlink:href="#4" y="2.171"/><text y="6.012" class="j">[vagrant@vbox</text><text x="14.028" y="6.012" class="j">~]$</text><text x="18.036" y="6.012" class="j">w</text></svg><svg x="3770"><use xlink:href="#a"/><use xlink:href="#b" x="19.996" y="4.317"/><use xlink:href="#3"/><use xlink:href="#4" y="2.171"/><text y="6.012" class="j">[vagrant@vbox</text><text x="14.028" y="6.012" class="j">~]$</text><text x="18.036" y="6.012" class="j">wh</text></svg><svg x="3900"><use xlink:href="#a"/><use xlink:href="#b" x="20.996" y="4.317"/><use xlink:href="#3"/><use xlink:href="#4" y="2.171"/><text y="6.012" class="j">[vagrant@vbox</text><text x="14.028" y="6.012" class="j">~]$</text><text x="18.036" y="6.012" class="j">who</text></svg><svg x="4030"><use xlink:href="#a"/><use xlink:href="#b" x="21.996" y="4.317"/><use xlink:href="#3"/><use xlink:href="#4" y="2.171"/><text y="6.012" class="j">[vagrant@vbox</text><text x="14.028" y="6.012" class="j">~]$</text><text x="18.036" y="6.012" class="j">whoa</text></svg><svg x="4160"><use xlink:href="#a"/><use xlink:href="#b" x="22.996" y="4.317"/><use xlink:href="#3"/><use xlink:href="#4" y="2.171"/><text y="6.012" class="j">[vagrant@vbox</text><text x="14.028" y="6.012" class="j">~]$</text><text x="18.036" y="6.012" class="j">whoam</text></svg><svg x="4290"><use xlink:href="#a"/><use xlink:href="#b" x="23.996" y="4.317"/><use xlink:href="#3"/><use xlink:href="#4" y="2.171"/><use xlink:href="#6" y="4.342"/></svg><svg x="4420"><use xlink:href="#a"/><use xlink:href="#b" x="-.004" y="6.488"/><use xlink:href="#3"/><use xlink:href="#4" y="2.171"/><use xlink:href="#6" y="4.342"/></svg><svg x="4550"><use xlink:href="#a"/><use xlink:href="#b" x="-.004" y="6.488"/><use xlink:href="#3"/><use xlink:href="#4" y="2.171"/><use xlink:href="#6" y="4.342"/></svg><svg x="4680"><use xlink:href="#a"/><use xlink:href="#b" x="6.996" y="6.488"/><use xlink:href="#3"/><use xlink:href="#4" y="2.171"/><use xlink:href="#6" y="4.342"/><use xlink:href="#7" y="6.513"/></svg><svg x="4810"><use xlink:href="#a"/><use xlink:href="#b" x="-.004" y="8.659"/><use xlink:href="#3"/><use xlink:href="#4" y="2.171"/><use xlink:href="#6" y="4.342"/><use xlink:href="#7" y="6.513"/></svg><svg x="4940"><use xlink:href="#a"/><use xlink:href="#b" x="-.004" y="8.659"/><use xlink:href="#3"/><use xlink:href="#4" y="2.171"/><use xlink:href="#6" y="4.342"/><use xlink:href="#7" y="6.513"/></svg><svg x="5070"><use xlink:href="#a"/><use xlink:href="#b" x="-.004" y="8.659"/><use xlink:href="#3"/><use xlink:href="#4" y="2.171"/><use xlink:href="#6" y="4.342"/><use xlink:href="#7" y="6.513"/></svg><svg x="5200"><use xlink:href="#a"/><use xlink:href="#b" x="17.996" y="8.659"/><use xlink:href="#3"/><use xlink:href="#4" y="2.171"/><use xlink:href="#6" y="4.342"/><use xlink:href="#7" y="6.513"/><use xlink:href="#5" y="8.684"/></svg><svg x="5330"><use xlink:href="#a"/><use xlink:href="#b" x="18.996" y="8.659"/><use xlink:href="#3"/><use xlink:href="#4" y="2.171"/><use xlink:href="#6" y="4.342"/><use xlink:href="#7" y="6.513"/><text y="10.354" class="j">[vagrant@vbox</text><text x="14.028" y="10.354" class="j">~]$</text><text x="18.036" y="10.354" class="j">p</text></svg><svg x="5460"><use xlink:href="#a"/><use xlink:href="#b" x="19.996" y="8.659"/><use xlink:href="#3"/><use xlink:href="#4" y="2.171"/><use xlink:href="#6" y="4.342"/><use xlink:href="#7" y="6.513"/><use xlink:href="#8" y="8.684"/></svg><svg x="5590"><use xlink:href="#a"/><use xlink:href="#b" x="20.996" y="8.659"/><use xlink:href="#3"/><use xlink:href="#4" y="2.171"/><use xlink:href="#6" y="4.342"/><use xlink:href="#7" y="6.513"/><text y="10.354" class="j">[vagrant@vbox</text><text x="14.028" y="10.354" class="j">~]$</text><text x="18.036" y="10.354" class="j">pws</text></svg><svg x="5720"><use xlink:href="#a"/><use xlink:href="#b" x="19.996" y="8.659"/><use xlink:href="#3"/><use xlink:href="#4" y="2.171"/><use xlink:href="#6" y="4.342"/><use xlink:href="#7" y="6.513"/><use xlink:href="#8" y="8.684"/></svg><svg x="5850"><use xlink:href="#a"/><use xlink:href="#b" x="20.996" y="8.659"/><use xlink:href="#3"/><use xlink:href="#4" y="2.171"/><use xlink:href="#6" y="4.342"/><use xlink:href="#7" y="6.513"/><use xlink:href="#9" y="8.684"/></svg><svg x="5980"><use xlink:href="#a"/><use xlink:href="#b" x="17.996" y="13.001"/><use xlink:href="#3"/><use xlink:href="#4" y="2.171"/><use xlink:href="#6" y="4.342"/><use xlink:href="#7" y="6.513"/><use xlink:href="#9" y="8.684"/><use xlink:href="#10" y="10.855"/><use xlink:href="#5" y="13.026"/></svg><svg x="6110"><use xlink:href="#a"/><use xlink:href="#b" x="18.996" y="13.001"/><use xlink:href="#3"/><use xlink:href="#4" y="2.171"/><use xlink:href="#6" y="4.342"/><use xlink:href="#7" y="6.513"/><use xlink:href="#9" y="8.684"/><use xlink:href="#10" y="10.855"/><text y="14.696" class="j">[vagrant@vbox</text><text x="14.028" y="14.696" class="j">~]$</text><text x="18.036" y="14.696" class="j">e</text></svg><svg x="6240"><use xlink:href="#a"/><use xlink:href="#b" x="19.996" y="13.001"/><use xlink:href="#3"/><use xlink:href="#4" y="2.171"/><use xlink:href="#6" y="4.342"/><use xlink:href="#7" y="6.513"/><use xlink:href="#9" y="8.684"/><use xlink:href="#10" y="10.855"/><text y="14.696" class="j">[vagrant@vbox</text><text x="14.028" y="14.696" class="j">~]$</text><text x="18.036" y="14.696" class="j">ex</text></svg><svg x="6370"><use xlink:href="#a"/><use xlink:href="#b" x="20.996" y="13.001"/><use xlink:href="#3"/><use xlink:href="#4" y="2.171"/><use xlink:href="#6" y="4.342"/><use xlink:href="#7" y="6.513"/><use xlink:href="#9" y="8.684"/><use xlink:href="#10" y="10.855"/><text y="14.696" class="j">[vagrant@vbox</text><text x="14.028" y="14.696" class="j">~]$</text><text x="18.036" y="14.696" class="j">exi</text></svg><svg x="6500"><use xlink:href="#a"/><use xlink:href="#b" x="21.996" y="13.001"/><use xlink:href="#3"/><use xlink:href="#4" y="2.171"/><use xlink:href="#6" y="4.342"/><use xlink:href="#7" y="6.513"/><use xlink:href="#9" y="8.684"/><use xlink:href="#10" y="10.855"/><use xlink:href="#11" y="13.026"/></svg><svg x="6630"><use xlink:href="#a"/><use xlink:href="#b" x="-.004" y="17.343"/><use xlink:href="#3"/><use xlink:href="#4" y="2.171"/><use xlink:href="#6" y="4.342"/><use xlink:href="#7" y="6.513"/><use xlink:href="#9" y="8.684"/><use xlink:href="#10" y="10.855"/><use xlink:href="#11" y="13.026"/><use xlink:href="#12" y="15.197"/></svg><svg x="6760"><use xlink:href="#a"/><use xlink:href="#b" x="-.004" y="17.343"/><use xlink:href="#3"/><use xlink:href="#4" y="2.171"/><use xlink:href="#6" y="4.342"/><use xlink:href="#7" y="6.513"/><use xlink:href="#9" y="8.684"/><use xlink:href="#10" y="10.855"/><use xlink:href="#11" y="13.026"/><use xlink:href="#12" y="15.197"/></svg><svg x="6890"><use xlink:href="#a"/><use xlink:href="#b" x="-.004" y="17.343"/><use xlink:href="#3"/><use xlink:href="#4" y="2.171"/><use xlink:href="#6" y="4.342"/><use xlink:href="#7" y="6.513"/><use xlink:href="#9" y="8.684"/><use xlink:href="#10" y="10.855"/><use xlink:href="#11" y="13.026"/><use xlink:href="#12" y="15.197"/></svg><svg x="7020"><use xlink:href="#a"/><use xlink:href="#b" x="-.004" y="17.343"/><use xlink:href="#3"/><use xlink:href="#4" y="2.171"/><use xlink:href="#6" y="4.342"/><use xlink:href="#7" y="6.513"/><use xlink:href="#9" y="8.684"/><use xlink:href="#10" y="10.855"/><use xlink:href="#11" y="13.026"/><use xlink:href="#12" y="15.197"/></svg><svg x="7150"><use xlink:href="#a"/><use xlink:href="#b" x="-.004" y="17.343"/><use xlink:href="#3"/><use xlink:href="#4" y="2.171"/><use xlink:href="#6" y="4.342"/><use xlink:href="#7" y="6.513"/><use xlink:href="#9" y="8.684"/><use xlink:href="#10" y="10.855"/><use xlink:href="#11" y="13.026"/><use xlink:href="#12" y="15.197"/></svg><svg x="7280"><use xlink:href="#a"/><use xlink:href="#b" x="49.996" y="17.343"/><use xlink:href="#3"/><use xlink:href="#4" y="2.171"/><use xlink:href="#6" y="4.342"/><use xlink:href="#7" y="6.513"/><use xlink:href="#9" y="8.684"/><use xlink:href="#10" y="10.855"/><use xlink:href="#11" y="13.026"/><use xlink:href="#12" y="15.197"/><use xlink:href="#1" y="17.368"/></svg><svg x="7410"><use xlink:href="#a"/><use xlink:href="#b" x="49.996" y="17.343"/><use xlink:href="#3"/><use xlink:href="#4" y="2.171"/><use xlink:href="#6" y="4.342"/><use xlink:href="#7" y="6.513"/><use xlink:href="#9" y="8.684"/><use xlink:href="#10" y="10.855"/><use xlink:href="#11" y="13.026"/><use xlink:href="#12" y="15.197"/><use xlink:href="#1" y="17.368"/></svg><svg x="7540"><use xlink:href="#a"/><use xlink:href="#b" x="49.996" y="17.343"/><use xlink:href="#3"/><use xlink:href="#4" y="2.171"/><use xlink:href="#6" y="4.342"/><use xlink:href="#7" y="6.513"/><use xlink:href="#9" y="8.684"/><use xlink:href="#10" y="10.855"/><use xlink:href="#11" y="13.026"/><use xlink:href="#12" y="15.197"/><use xlink:href="#1" y="17.368"/></svg><svg x="7670"><use xlink:href="#a"/><use xlink:href="#b" x="-.004" y="19.514"/><use xlink:href="#3"/><use xlink:href="#4" y="2.171"/><use xlink:href="#6" y="4.342"/><use xlink:href="#7" y="6.513"/><use xlink:href="#9" y="8.684"/><use xlink:href="#10" y="10.855"/><use xlink:href="#11" y="13.026"/><use xlink:href="#12" y="15.197"/><use xlink:href="#1" y="17.368"/></svg></svg></g></g></svg></svg>